<?xml version="1.0" encoding="UTF-8"?>
<svg width="74px" height="74px" viewBox="0 0 74 74" version="1.1" xmlns="http://www.w3.org/2000/svg" xmlns:xlink="http://www.w3.org/1999/xlink">
    <!-- Generator: Sketch 44.1 (41455) - http://www.bohemiancoding.com/sketch -->
    <title>a</title>
    <desc>Created with Sketch.</desc>
    <defs></defs>
    <g id="Page-1" stroke="none" stroke-width="1" fill="none" fill-rule="evenodd">
        <path d="M43.6171875,45.703125 L43.6171875,72.9140625 C41.4609267,73.2890644 39.4921964,73.4765625 37.7109375,73.4765625 C27.1640098,73.4765625 18.3750352,70.0078472 11.34375,63.0703125 C4.31246484,56.1327778 0.796875,47.4375523 0.796875,36.984375 C0.796875,26.8124491 4.34762074,18.1875354 11.4492188,11.109375 C18.5508168,4.03121461 27.1874491,0.4921875 37.359375,0.4921875 C48.7031817,0.4921875 57.6444986,3.80856059 64.1835938,10.4414062 C70.7226889,17.0742519 73.9921875,26.1327551 73.9921875,37.6171875 L73.9921875,72 L47.6953125,72 L47.6953125,39.515625 C47.6953125,35.8124815 46.7929778,32.859386 44.9882812,30.65625 C43.1835847,28.453114 40.7578277,27.3515625 37.7109375,27.3515625 C34.9452987,27.3515625 32.5546976,28.3593649 30.5390625,30.375 C28.5234274,32.3906351 27.515625,34.7812362 27.515625,37.546875 C27.515625,40.4531395 28.4296784,42.8437406 30.2578125,44.71875 C32.0859466,46.5937594 34.4062359,47.53125 37.21875,47.53125 C39.5156365,47.53125 41.6484277,46.9218811 43.6171875,45.703125 Z" id="a" fill="#FF7801"></path>
    </g>
</svg>