<?xml version="1.0" encoding="UTF-8"?>
<svg width="251px" height="231px" viewBox="0 0 251 231" version="1.1" xmlns="http://www.w3.org/2000/svg" xmlns:xlink="http://www.w3.org/1999/xlink">
    <!-- Generator: Sketch 44.1 (41455) - http://www.bohemiancoding.com/sketch -->
    <title>Combined Shape</title>
    <desc>Created with Sketch.</desc>
    <defs>
        <linearGradient x1="50%" y1="0%" x2="50%" y2="100%" id="linearGradient-1">
            <stop stop-color="#FBDA61" offset="0%"></stop>
            <stop stop-color="#F76B1C" offset="100%"></stop>
        </linearGradient>
    </defs>
    <g id="Page-1" stroke="none" stroke-width="1" fill="none" fill-rule="evenodd">
        <path d="M172.765784,222.271103 C180.800119,227.778091 190.523801,231 201,231 C228.614237,231 251,208.614237 251,181 C251,161.445678 239.774872,144.513126 223.416867,136.294592 C220.680481,136.758454 217.868449,137 215,137 C206.940084,137 199.325589,135.092929 192.583133,131.705408 C192.358896,131.743419 192.135166,131.782924 191.911956,131.823911 L191.598447,131.196894 C175.776338,122.801923 165,106.159436 165,87 C165,75.3753603 168.967024,64.6772685 175.621136,56.18566 C175.87122,54.1588331 176,52.0944556 176,50 C176,22.3857625 153.614237,0 126,0 C98.3857625,0 76,22.3857625 76,50 C76,53.1206383 76.2858858,56.1745043 76.8328958,59.1368365 C80.9308446,64.9236877 83.8295785,71.6197945 85.1671042,78.8631635 C85.4390031,79.2471212 85.7161814,79.627076 85.9985332,80.0029222 L85.5108342,80.9783316 C85.8332686,83.2725932 86,85.6168255 86,88 C86,106.881556 75.5339857,123.318643 60.086782,131.826436 L59.9999178,132.000164 C59.9437173,131.988756 59.8874826,131.977443 59.8312138,131.966223 C52.7469642,135.814251 44.6287366,138 36,138 C32.6349378,138 29.3475173,137.667576 26.1687862,137.033777 C10.5815649,145.500455 0,162.014499 0,181 C0,208.614237 22.3857625,231 50,231 C61.0859424,231 71.3292214,227.392129 79.6197236,221.2865 C87.0279737,202.943228 105.00246,190 126,190 C147.371289,190 165.610949,203.408099 172.765784,222.271103 Z" id="Combined-Shape" fill="url(#linearGradient-1)"></path>
    </g>
</svg>